<svg width="150" height="150" viewBox="0 0 150 150" fill="none" xmlns="http://www.w3.org/2000/svg">
<path d="M27.6249 128.619C25.8718 128.616 24.2004 127.877 23.0187 126.581C21.8153 125.297 21.2173 123.559 21.3749 121.806L22.9062 104.969L93.6438 34.2565L115.75 56.3565L45.0312 127.063L28.1937 128.594C27.9999 128.613 27.8062 128.619 27.6249 128.619ZM120.163 51.9377L98.0625 29.8377L111.319 16.5815C112.491 15.4079 114.082 14.7484 115.741 14.7484C117.399 14.7484 118.99 15.4079 120.163 16.5815L133.419 29.8377C134.593 31.01 135.252 32.6008 135.252 34.2596C135.252 35.9184 134.593 37.5092 133.419 38.6815L120.169 51.9315L120.163 51.9377Z" fill="#FF6F6F"/>
</svg>
