<svg width="150" height="150" viewBox="0 0 150 150" fill="none" xmlns="http://www.w3.org/2000/svg">
<path d="M118.75 137.5H31.25C24.3464 137.5 18.75 131.904 18.75 125V37.5C18.75 30.5964 24.3464 25 31.25 25H43.75V12.5H56.25V25H93.75V12.5H106.25V25H118.75C125.654 25 131.25 30.5964 131.25 37.5V125C131.25 131.904 125.654 137.5 118.75 137.5ZM31.25 62.5V125H118.75V62.5H31.25ZM31.25 37.5V50H118.75V37.5H31.25ZM68.75 115.087L45.5813 91.9187L54.4187 83.0813L68.75 97.4125L95.5813 70.5813L104.419 79.4187L68.75 115.081V115.087Z" fill="#FF6F6F"/>
</svg>
